# xmcd CD database file
#
# Track frame offsets:
#	150
#	28531
#	46574
#	58361
#	83401
#
# Disc length: 1421 seconds
#
# Revision: 0
# Processed by: cddbd v1.5.2PL0 Copyright (c) Steve Scherf et al.
# Submitted via: CDex 1.70beta2
#
DISCID=30058b05
DTITLE=Oxyd - Oxyd
DYEAR=2008
DGENRE=Jazz
TTITLE0=11h11
TTITLE1=Une prochaine fois
TTITLE2=J
TTITLE3=Le pire est à venir
TTITLE4=Grille la nuit
EXTD=YEAR: 2008
EXTT0=
EXTT1=
EXTT2=
EXTT3=
EXTT4=
PLAYORDER=
